<svg width="43" height="43" viewBox="0 0 43 43" fill="none" xmlns="http://www.w3.org/2000/svg">
<circle cx="21.5" cy="21.5" r="21.5" fill="#407CE2" fill-opacity="0.13"/>
<mask id="mask0_213_736" style="mask-type:luminance" maskUnits="userSpaceOnUse" x="10" y="11" width="22" height="22">
<path fill-rule="evenodd" clip-rule="evenodd" d="M10 11.0003H31.493V32.4941H10V11.0003Z" fill="white"/>
</mask>
<g mask="url(#mask0_213_736)">
<path fill-rule="evenodd" clip-rule="evenodd" d="M15.1084 29.6753C15.6884 29.6753 16.2354 29.8953 16.8144 30.1283C20.3614 31.7683 24.5564 31.0223 27.2894 28.2903C30.8954 24.6823 30.8954 18.8133 27.2894 15.2073C25.5434 13.4613 23.2214 12.5003 20.7494 12.5003C18.2764 12.5003 15.9534 13.4623 14.2084 15.2083C11.4744 17.9403 10.7304 22.1353 12.3554 25.6483C12.5894 26.2273 12.8154 26.7913 12.8154 27.3773C12.8154 27.9623 12.6144 28.5513 12.4374 29.0713C12.2914 29.4993 12.0704 30.1453 12.2124 30.2873C12.3514 30.4313 13.0014 30.2043 13.4304 30.0573C13.9454 29.8813 14.5294 29.6793 15.1084 29.6753ZM20.7244 32.4943C19.1964 32.4943 17.6584 32.1713 16.2194 31.5053C15.7954 31.3353 15.3984 31.1753 15.1134 31.1753C14.7854 31.1773 14.3444 31.3293 13.9184 31.4763C13.0444 31.7763 11.9564 32.1503 11.1514 31.3483C10.3494 30.5453 10.7194 29.4603 11.0174 28.5873C11.1644 28.1573 11.3154 27.7133 11.3154 27.3773C11.3154 27.1013 11.1824 26.7493 10.9784 26.2423C9.10544 22.1973 9.97144 17.3223 13.1484 14.1473C15.1764 12.1183 17.8754 11.0003 20.7484 11.0003C23.6214 11.0003 26.3214 12.1173 28.3494 14.1463C32.5414 18.3383 32.5414 25.1583 28.3494 29.3503C26.2944 31.4063 23.5274 32.4943 20.7244 32.4943Z" fill="#407BFF"/>
</g>
<path fill-rule="evenodd" clip-rule="evenodd" d="M24.6964 23.163C24.1444 23.163 23.6924 22.716 23.6924 22.163C23.6924 21.61 24.1354 21.163 24.6874 21.163H24.6964C25.2484 21.163 25.6964 21.61 25.6964 22.163C25.6964 22.716 25.2484 23.163 24.6964 23.163Z" fill="#407BFF"/>
<path fill-rule="evenodd" clip-rule="evenodd" d="M20.6876 23.163C20.1356 23.163 19.6836 22.716 19.6836 22.163C19.6836 21.61 20.1256 21.163 20.6786 21.163H20.6876C21.2396 21.163 21.6876 21.61 21.6876 22.163C21.6876 22.716 21.2396 23.163 20.6876 23.163Z" fill="#407BFF"/>
<path fill-rule="evenodd" clip-rule="evenodd" d="M16.6783 23.163C16.1263 23.163 15.6743 22.716 15.6743 22.163C15.6743 21.61 16.1173 21.163 16.6693 21.163H16.6783C17.2303 21.163 17.6783 21.61 17.6783 22.163C17.6783 22.716 17.2303 23.163 16.6783 23.163Z" fill="#407BFF"/>
</svg>
