<svg width="22" height="30" viewBox="0 0 22 30" fill="none" xmlns="http://www.w3.org/2000/svg">
<path d="M10.9817 30C13.9688 30 16.7274 28.8779 18.7492 26.8405C20.8219 24.7518 21.9634 21.8295 21.9634 18.6117C21.9634 11.3385 14.3645 2.8718 12.0357 0.450059C11.7578 0.161016 11.3841 0.00117187 10.9833 0C10.5842 0.00228516 10.2081 0.156211 9.92846 0.443379C9.53711 0.845391 8.91496 1.50211 8.17334 2.34803C7.86725 2.69707 7.90217 3.22828 8.25133 3.53426C8.60031 3.84041 9.13158 3.80561 9.43756 3.45627C10.0636 2.74225 10.6004 2.16873 10.9777 1.77662C12.8563 3.75469 20.2821 11.9947 20.2821 18.6117C20.2821 24.2363 16.3708 28.3187 10.9817 28.3187C5.5927 28.3187 1.68144 24.2363 1.68144 18.6117C1.68144 14.4717 4.50033 9.81293 6.865 6.63375C7.14215 6.26127 7.06474 5.73469 6.69215 5.4576C6.31972 5.18045 5.79326 5.25779 5.51599 5.63045C1.85594 10.551 0.000156879 14.9186 0.000156879 18.6118C0.000156879 21.8295 1.14162 24.7519 3.21432 26.8406C5.23621 28.878 7.99475 30 10.9817 30Z" fill="#407BFF"/>
</svg>
