<svg width="27" height="34" viewBox="0 0 27 34" fill="none" xmlns="http://www.w3.org/2000/svg">
<path d="M18.0877 15.9921C18.0877 15.9921 18.0877 15.9921 18.0877 15.9488L18.0552 15.8675C18.0439 15.8503 18.0312 15.834 18.0173 15.8188C18.0028 15.7958 17.9865 15.7741 17.9685 15.7538L17.9198 15.7159L17.8331 15.6725L13.7706 13.1646C13.6845 13.1108 13.5851 13.0823 13.4835 13.0823C13.382 13.0823 13.2825 13.1108 13.1965 13.1646L9.16646 15.6725L9.11771 15.7159L9.06896 15.7538C9.051 15.7741 9.0347 15.7958 9.02021 15.8188C9.00629 15.834 8.99361 15.8503 8.98229 15.8675L8.94979 15.9488C8.94979 15.9488 8.94979 15.9488 8.94979 15.9921C8.94447 16.0389 8.94447 16.0861 8.94979 16.1329V20.8671C8.94961 20.9592 8.97289 21.0497 9.01743 21.1303C9.06198 21.2109 9.12632 21.2787 9.20438 21.3275L13.2669 23.8354C13.2919 23.8509 13.3194 23.8619 13.3481 23.8679C13.3481 23.8679 13.3752 23.8679 13.3915 23.8679C13.4831 23.897 13.5815 23.897 13.6731 23.8679C13.6731 23.8679 13.7002 23.8679 13.7165 23.8679C13.7452 23.8619 13.7727 23.8509 13.7977 23.8354L17.8331 21.3275C17.9112 21.2787 17.9755 21.2109 18.0201 21.1303C18.0646 21.0497 18.0879 20.9592 18.0877 20.8671V16.1329C18.093 16.0861 18.093 16.0389 18.0877 15.9921ZM12.9581 22.4054L9.97896 20.5638V17.1079L12.9581 18.9442V22.4054ZM13.4998 18.0071L10.4665 16.1329L13.4998 14.2642L16.5331 16.1329L13.4998 18.0071ZM17.0206 20.5638L14.0415 22.4054V18.9442L17.0206 17.1079V20.5638Z" fill="#407BFF"/>
<path d="M25 20.6875C25 23.7375 23.7884 26.6626 21.6317 28.8192C19.4751 30.9759 16.55 32.1875 13.5 32.1875C10.45 32.1875 7.52494 30.9759 5.36827 28.8192C3.2116 26.6626 2 23.7375 2 20.6875C2 14.3337 13.5 2 13.5 2C13.5 2 25 14.3337 25 20.6875Z" stroke="#407BFF" stroke-width="2.5" stroke-linecap="round" stroke-linejoin="round"/>
</svg>
