<svg width="43" height="43" viewBox="0 0 43 43" fill="none" xmlns="http://www.w3.org/2000/svg">
<circle cx="21.5" cy="21.5" r="21.5" fill="#407CE2" fill-opacity="0.13"/>
<mask id="mask0_213_784" style="mask-type:luminance" maskUnits="userSpaceOnUse" x="11" y="12" width="21" height="21">
<path fill-rule="evenodd" clip-rule="evenodd" d="M11 12.9999H31.4725V32.5009H11V12.9999Z" fill="white"/>
</mask>
<g mask="url(#mask0_213_784)">
<path fill-rule="evenodd" clip-rule="evenodd" d="M12.8235 22.123C14.2255 26.485 19.7645 30.012 21.2365 30.885C22.7135 30.003 28.2925 26.437 29.6495 22.127C30.5405 19.341 29.7135 15.812 26.4275 14.753C24.8355 14.242 22.9785 14.553 21.6965 15.545C21.4285 15.751 21.0565 15.755 20.7865 15.551C19.4285 14.53 17.6545 14.231 16.0375 14.753C12.7565 15.811 11.9325 19.34 12.8235 22.123ZM21.2375 32.501C21.1135 32.501 20.9905 32.471 20.8785 32.41C20.5655 32.239 13.1925 28.175 11.3955 22.581C11.3945 22.581 11.3945 22.58 11.3945 22.58C10.2665 19.058 11.5225 14.632 15.5775 13.325C17.4815 12.709 19.5565 12.98 21.2345 14.039C22.8605 13.011 25.0205 12.727 26.8865 13.325C30.9455 14.634 32.2055 19.059 31.0785 22.58C29.3395 28.11 21.9125 32.235 21.5975 32.408C21.4855 32.47 21.3615 32.501 21.2375 32.501Z" fill="#407BFF"/>
</g>
<path fill-rule="evenodd" clip-rule="evenodd" d="M27.1537 20.6249C26.7667 20.6249 26.4387 20.3279 26.4067 19.9359C26.3407 19.1139 25.7907 18.4199 25.0077 18.1669C24.6127 18.0389 24.3967 17.6159 24.5237 17.2229C24.6527 16.8289 25.0717 16.6149 25.4677 16.7389C26.8307 17.1799 27.7857 18.3869 27.9027 19.8139C27.9357 20.2269 27.6287 20.5889 27.2157 20.6219C27.1947 20.6239 27.1747 20.6249 27.1537 20.6249Z" fill="#407BFF"/>
</svg>
