<svg width="33" height="23" viewBox="0 0 33 23" fill="#000" xmlns="http://www.w3.org/2000/svg">
<path fill-rule="evenodd" clip-rule="evenodd" d="M31.7396 18.0413C31.7396 18.0494 31.744 18.0552 31.744 18.0625C31.744 18.0661 31.7418 18.0698 31.7418 18.0742C31.7425 18.0778 31.744 18.0814 31.744 18.0858C31.744 18.4883 31.418 18.815 31.0148 18.815C31.0257 18.8143 24.5208 18.7917 24.5208 18.7917C24.1176 18.7917 23.7917 18.465 23.7917 18.0625C23.7917 17.6593 24.1176 17.3333 24.5208 17.3333H30.3148C30.3286 17.0898 30.3542 16.8506 30.3542 16.6042C30.3542 8.95301 24.1511 2.74999 16.5 2.74999C8.84885 2.74999 2.64583 8.95301 2.64583 16.6042C2.64583 16.8506 2.67135 17.0898 2.68448 17.3333H8.47917C8.8824 17.3333 9.20833 17.6593 9.20833 18.0625C9.20833 18.465 8.8824 18.7917 8.47917 18.7917C8.47917 18.7917 1.975 18.8143 1.98521 18.8143C1.58198 18.8143 1.25604 18.4876 1.25604 18.0851C1.25604 18.0807 1.2575 18.0771 1.25823 18.0734C1.25823 18.0691 1.25604 18.0654 1.25604 18.0618C1.25604 18.0537 1.26042 18.0479 1.26042 18.0413C1.21594 17.5674 1.1875 17.0891 1.1875 16.6042C1.1875 8.14655 8.04313 1.29166 16.5 1.29166C24.9569 1.29166 31.8125 8.14655 31.8125 16.6042C31.8125 17.0891 31.7841 17.5674 31.7396 18.0413ZM11.7772 9.40582C12.0638 9.24832 12.4079 9.30082 12.6442 9.5028L12.6077 9.44228C19.0054 14.1235 20.3201 16.2768 20.3442 16.3169C21.3891 18.0355 20.7678 20.2332 18.9595 21.2249C17.1511 22.2166 14.8375 21.6281 13.7933 19.9095C13.7678 19.8708 12.4633 17.7118 11.3936 10.108L11.4308 10.1678C11.3659 9.87322 11.4914 9.56259 11.7772 9.40582ZM15.1044 19.192C15.5091 19.8562 16.263 20.2697 17.0724 20.2697C17.4676 20.2697 17.8592 20.1698 18.2041 19.9802C18.7291 19.6922 19.1046 19.2284 19.2614 18.6721C19.4189 18.115 19.3379 17.5346 19.0404 17.0446C19.028 17.0263 17.8942 15.3048 13.1619 11.6867C14.0959 17.3851 15.0964 19.1774 15.1044 19.192Z" fill="#000" stroke="#000" stroke-linejoin="round"/>
</svg>
