<svg width="35" height="35" viewBox="0 0 35 35" fill="none" xmlns="http://www.w3.org/2000/svg">
<path fill-rule="evenodd" clip-rule="evenodd" d="M32.7396 24.0413C32.7396 24.0494 32.744 24.0552 32.744 24.0625C32.744 24.0661 32.7418 24.0698 32.7418 24.0742C32.7425 24.0778 32.744 24.0814 32.744 24.0858C32.744 24.4883 32.418 24.815 32.0148 24.815C32.0257 24.8143 25.5208 24.7917 25.5208 24.7917C25.1176 24.7917 24.7917 24.465 24.7917 24.0625C24.7917 23.6593 25.1176 23.3333 25.5208 23.3333H31.3148C31.3286 23.0898 31.3542 22.8506 31.3542 22.6042C31.3542 14.953 25.1511 8.74999 17.5 8.74999C9.84885 8.74999 3.64583 14.953 3.64583 22.6042C3.64583 22.8506 3.67135 23.0898 3.68448 23.3333H9.47917C9.8824 23.3333 10.2083 23.6593 10.2083 24.0625C10.2083 24.465 9.8824 24.7917 9.47917 24.7917C9.47917 24.7917 2.975 24.8143 2.98521 24.8143C2.58198 24.8143 2.25604 24.4876 2.25604 24.0851C2.25604 24.0807 2.2575 24.0771 2.25823 24.0734C2.25823 24.0691 2.25604 24.0654 2.25604 24.0618C2.25604 24.0537 2.26042 24.0479 2.26042 24.0413C2.21594 23.5674 2.1875 23.0891 2.1875 22.6042C2.1875 14.1466 9.04313 7.29166 17.5 7.29166C25.9569 7.29166 32.8125 14.1466 32.8125 22.6042C32.8125 23.0891 32.7841 23.5674 32.7396 24.0413ZM12.7772 15.4058C13.0638 15.2483 13.4079 15.3008 13.6442 15.5028L13.6077 15.4423C20.0054 20.1235 21.3201 22.2768 21.3442 22.3169C22.3891 24.0355 21.7678 26.2332 19.9595 27.2249C18.1511 28.2166 15.8375 27.6281 14.7933 25.9095C14.7678 25.8708 13.4633 23.7118 12.3936 16.108L12.4308 16.1678C12.3659 15.8732 12.4914 15.5626 12.7772 15.4058ZM16.1044 25.192C16.5091 25.8562 17.263 26.2697 18.0724 26.2697C18.4676 26.2697 18.8592 26.1698 19.2041 25.9802C19.7291 25.6922 20.1046 25.2284 20.2614 24.6721C20.4189 24.115 20.3379 23.5346 20.0404 23.0446C20.028 23.0263 18.8942 21.3048 14.1619 17.6867C15.0959 23.3851 16.0964 25.1774 16.1044 25.192Z" fill="#407BFF"/>
<path d="M10 24C7.26633 24 5.73367 24 3 24C2.39212 16.0979 7.99999 8 17 8C26 8 32.4998 14.5 31.9998 24H25" stroke="#407BFF" stroke-width="2.5" stroke-linecap="round" stroke-linejoin="round"/>
<path d="M16 26L14 17.5L20.5 23V25L19 26.5L16 26Z" fill="#407BFF" stroke="#407BFF"/>
</svg>
