<svg width="30" height="30" viewBox="0 0 30 30" fill="none" xmlns="http://www.w3.org/2000/svg">
<path d="M17.2206 26.3672H13.6833C13.4662 26.3672 13.2568 26.2869 13.0953 26.1417C12.9339 25.9966 12.8319 25.7968 12.8091 25.5809L12.5472 23.1146C12.1815 22.9902 11.8243 22.8423 11.4778 22.6717L9.55068 24.2303C9.38202 24.3661 9.16913 24.4349 8.95286 24.4234C8.73659 24.412 8.53217 24.3211 8.37881 24.1682L5.87744 21.6668C5.72453 21.5134 5.63362 21.309 5.62216 21.0927C5.61069 20.8765 5.67948 20.6636 5.81533 20.4949L7.37451 18.5654C7.20365 18.219 7.05548 17.8618 6.93096 17.4961L4.46064 17.2324C4.24485 17.2096 4.04513 17.1077 3.89996 16.9464C3.75478 16.7851 3.67441 16.5758 3.67432 16.3588V12.8209C3.67441 12.6039 3.75478 12.3946 3.89996 12.2333C4.04513 12.072 4.24485 11.9701 4.46064 11.9473L6.92686 11.6854C7.05138 11.3197 7.19955 10.9625 7.37041 10.616L5.81123 8.68652C5.67538 8.51786 5.60659 8.30497 5.61805 8.0887C5.62952 7.87244 5.72042 7.66801 5.87334 7.51465L8.37471 5.01328C8.52807 4.86037 8.73249 4.76946 8.94876 4.758C9.16503 4.74654 9.37791 4.81533 9.54658 4.95117L11.4761 6.50977C11.8226 6.3392 12.1798 6.19123 12.5454 6.0668L12.8073 3.60059C12.8298 3.38407 12.9319 3.1836 13.0937 3.03801C13.2555 2.89242 13.4656 2.81206 13.6833 2.8125H17.2206C17.4377 2.81245 17.6472 2.89276 17.8086 3.03795C17.97 3.18314 18.072 3.38293 18.0948 3.59883L18.3562 6.06504C18.722 6.18947 19.0794 6.33744 19.4261 6.50801L21.355 4.94942C21.5236 4.81357 21.7365 4.74478 21.9528 4.75624C22.1691 4.7677 22.3735 4.85861 22.5269 5.01152L25.0282 7.51289C25.1811 7.66626 25.272 7.87068 25.2835 8.08695C25.295 8.30321 25.2262 8.5161 25.0903 8.68477L23.5312 10.6143C23.7018 10.9608 23.8499 11.318 23.9747 11.6836L26.4409 11.9455C26.6566 11.9685 26.8562 12.0704 27.0012 12.2317C27.1463 12.393 27.2266 12.6022 27.2267 12.8191V16.357C27.2271 16.5739 27.1473 16.7832 27.0027 16.9448C26.8581 17.1064 26.6588 17.2089 26.4433 17.2324L23.977 17.4943C23.8523 17.8599 23.7041 18.2171 23.5335 18.5637L25.0927 20.4932C25.2285 20.6618 25.2973 20.8747 25.2858 21.091C25.2744 21.3073 25.1835 21.5117 25.0306 21.665L22.5292 24.1682C22.3758 24.3211 22.1714 24.412 21.9551 24.4234C21.7389 24.4349 21.526 24.3661 21.3573 24.2303L19.4284 22.6717C19.0817 22.8423 18.7243 22.9902 18.3585 23.1146L18.0972 25.5809C18.0743 25.7972 17.972 25.9973 17.81 26.1425C17.6481 26.2878 17.4381 26.3678 17.2206 26.3672ZM14.4726 24.6094H16.429L16.6687 22.35C16.6875 22.1732 16.7595 22.0062 16.8752 21.8711C16.9909 21.7361 17.1448 21.6393 17.3167 21.5936C17.9358 21.4285 18.5301 21.1816 19.0839 20.8594C19.2381 20.7695 19.416 20.7288 19.5939 20.7425C19.7718 20.7562 19.9414 20.8237 20.08 20.9361L21.8472 22.3641L23.2306 20.9807L21.8003 19.2188C21.6879 19.0801 21.6203 18.9106 21.6066 18.7327C21.5929 18.5547 21.6337 18.3769 21.7235 18.2227C22.045 17.6692 22.2912 17.0753 22.4554 16.4566C22.5011 16.2847 22.598 16.1307 22.7332 16.015C22.8683 15.8992 23.0354 15.8273 23.2124 15.8086L25.4712 15.5684V13.6119L23.2124 13.3717C23.0354 13.353 22.8683 13.281 22.7332 13.1653C22.598 13.0496 22.5011 12.8956 22.4554 12.7236C22.2912 12.1048 22.0451 11.5107 21.7235 10.957C21.6337 10.8028 21.5929 10.625 21.6066 10.447C21.6203 10.2691 21.6879 10.0995 21.8003 9.96094L23.2282 8.19375L21.8448 6.81035L20.0776 8.23828C19.939 8.35069 19.7695 8.41824 19.5916 8.43195C19.4136 8.44566 19.2357 8.40489 19.0815 8.31504C18.528 7.99376 17.9341 7.74765 17.3155 7.5832C17.1437 7.53749 16.9897 7.44071 16.874 7.30565C16.7583 7.17059 16.6863 7.00361 16.6675 6.82676L16.4302 4.57031H14.4726L14.2329 6.82969C14.2141 7.00661 14.142 7.17365 14.0262 7.30872C13.9103 7.44378 13.7563 7.54052 13.5843 7.58613C12.9662 7.75133 12.3728 7.99823 11.82 8.32031C11.6658 8.41016 11.4879 8.45094 11.31 8.43723C11.1321 8.42351 10.9625 8.35596 10.8239 8.24356L9.0585 6.81328L7.67568 8.19668L9.1042 9.96387C9.21652 10.1025 9.28396 10.2721 9.29757 10.45C9.31117 10.628 9.2703 10.8058 9.18037 10.96C8.85934 11.5137 8.61325 12.1075 8.44853 12.726C8.40282 12.8978 8.30604 13.0518 8.17098 13.1675C8.03592 13.2832 7.86894 13.3552 7.69209 13.374L5.43271 13.6143V15.5701L7.69209 15.8104C7.86894 15.8292 8.03592 15.9012 8.17098 16.0169C8.30604 16.1326 8.40282 16.2865 8.44853 16.4584C8.61321 17.0762 8.85911 17.6695 9.17978 18.2227C9.26971 18.3768 9.31059 18.5546 9.29698 18.7326C9.28338 18.9105 9.21593 19.0801 9.10361 19.2188L7.67568 20.983L9.05908 22.3664L10.8269 20.9385C10.9655 20.8261 11.135 20.7585 11.3129 20.7448C11.4909 20.7311 11.6688 20.7719 11.8229 20.8617C12.3763 21.1831 12.97 21.4292 13.5884 21.5936C13.7604 21.6392 13.9144 21.7359 14.0303 21.871C14.1461 22.006 14.2182 22.1731 14.237 22.35L14.4726 24.6094Z" fill="#407BFF"/>
<path d="M15.4517 19.9429C14.3929 19.9428 13.358 19.6288 12.4778 19.0405C11.5975 18.4522 10.9115 17.6161 10.5064 16.638C10.1014 15.6598 9.99544 14.5835 10.2021 13.5451C10.4087 12.5068 10.9186 11.553 11.6672 10.8044C12.4159 10.0558 13.3697 9.54602 14.4081 9.33951C15.4465 9.13301 16.5228 9.23905 17.5009 9.64423C18.4791 10.0494 19.3151 10.7355 19.9032 11.6158C20.4914 12.4961 20.8054 13.5311 20.8054 14.5898C20.8038 16.0092 20.2393 17.37 19.2356 18.3735C18.2319 19.3771 16.871 19.9415 15.4517 19.9429ZM15.4517 10.9945C14.7406 10.9946 14.0455 11.2056 13.4544 11.6007C12.8632 11.9958 12.4025 12.5574 12.1304 13.2144C11.8584 13.8713 11.7873 14.5942 11.9261 15.2916C12.0649 15.989 12.4073 16.6295 12.9102 17.1323C13.413 17.6351 14.0536 17.9774 14.7511 18.1161C15.4485 18.2548 16.1713 18.1835 16.8283 17.9114C17.4852 17.6393 18.0466 17.1784 18.4417 16.5872C18.8367 15.996 19.0476 15.3009 19.0476 14.5898C19.0465 13.6365 18.6673 12.7226 17.9931 12.0485C17.319 11.3745 16.405 10.9954 15.4517 10.9945Z" fill="#407BFF"/>
</svg>
