<svg width="43" height="43" viewBox="0 0 43 43" fill="none" xmlns="http://www.w3.org/2000/svg">
<circle cx="21.5" cy="21.5" r="21.5" fill="#407CE2" fill-opacity="0.13"/>
<path d="M23.2206 34.3672H19.6833C19.4662 34.3672 19.2568 34.2869 19.0953 34.1417C18.9339 33.9966 18.8319 33.7968 18.8091 33.5809L18.5472 31.1146C18.1815 30.9902 17.8243 30.8423 17.4778 30.6717L15.5507 32.2303C15.382 32.3661 15.1691 32.4349 14.9529 32.4234C14.7366 32.412 14.5322 32.3211 14.3788 32.1682L11.8774 29.6668C11.7245 29.5134 11.6336 29.309 11.6222 29.0927C11.6107 28.8765 11.6795 28.6636 11.8153 28.4949L13.3745 26.5654C13.2036 26.219 13.0555 25.8618 12.931 25.4961L10.4606 25.2324C10.2448 25.2096 10.0451 25.1077 9.89996 24.9464C9.75478 24.7851 9.67441 24.5758 9.67432 24.3588V20.8209C9.67441 20.6039 9.75478 20.3946 9.89996 20.2333C10.0451 20.072 10.2448 19.9701 10.4606 19.9473L12.9269 19.6854C13.0514 19.3197 13.1995 18.9625 13.3704 18.616L11.8112 16.6865C11.6754 16.5179 11.6066 16.305 11.6181 16.0887C11.6295 15.8724 11.7204 15.668 11.8733 15.5146L14.3747 13.0133C14.5281 12.8604 14.7325 12.7695 14.9488 12.758C15.165 12.7465 15.3779 12.8153 15.5466 12.9512L17.4761 14.5098C17.8226 14.3392 18.1798 14.1912 18.5454 14.0668L18.8073 11.6006C18.8298 11.3841 18.9319 11.1836 19.0937 11.038C19.2555 10.8924 19.4656 10.8121 19.6833 10.8125H23.2206C23.4377 10.8125 23.6472 10.8928 23.8086 11.0379C23.97 11.1831 24.072 11.3829 24.0948 11.5988L24.3562 14.065C24.722 14.1895 25.0794 14.3374 25.4261 14.508L27.355 12.9494C27.5236 12.8136 27.7365 12.7448 27.9528 12.7562C28.1691 12.7677 28.3735 12.8586 28.5269 13.0115L31.0282 15.5129C31.1811 15.6663 31.272 15.8707 31.2835 16.0869C31.295 16.3032 31.2262 16.5161 31.0903 16.6848L29.5312 18.6143C29.7018 18.9608 29.8499 19.318 29.9747 19.6836L32.4409 19.9455C32.6566 19.9685 32.8562 20.0704 33.0012 20.2317C33.1463 20.393 33.2266 20.6022 33.2267 20.8191V24.357C33.2271 24.5739 33.1473 24.7832 33.0027 24.9448C32.8581 25.1064 32.6588 25.2089 32.4433 25.2324L29.977 25.4943C29.8523 25.8599 29.7041 26.2171 29.5335 26.5637L31.0927 28.4932C31.2285 28.6618 31.2973 28.8747 31.2858 29.091C31.2744 29.3073 31.1835 29.5117 31.0306 29.665L28.5292 32.1682C28.3758 32.3211 28.1714 32.412 27.9551 32.4234C27.7389 32.4349 27.526 32.3661 27.3573 32.2303L25.4284 30.6717C25.0817 30.8423 24.7243 30.9902 24.3585 31.1146L24.0972 33.5809C24.0743 33.7972 23.972 33.9973 23.81 34.1425C23.6481 34.2878 23.4381 34.3678 23.2206 34.3672ZM20.4726 32.6094H22.429L22.6687 30.35C22.6875 30.1732 22.7595 30.0062 22.8752 29.8711C22.9909 29.7361 23.1448 29.6393 23.3167 29.5936C23.9358 29.4285 24.5301 29.1816 25.0839 28.8594C25.2381 28.7695 25.416 28.7288 25.5939 28.7425C25.7718 28.7562 25.9414 28.8237 26.08 28.9361L27.8472 30.3641L29.2306 28.9807L27.8003 27.2188C27.6879 27.0801 27.6203 26.9106 27.6066 26.7327C27.5929 26.5547 27.6337 26.3768 27.7235 26.2227C28.045 25.6692 28.2912 25.0753 28.4554 24.4566C28.5011 24.2847 28.598 24.1307 28.7332 24.015C28.8683 23.8992 29.0354 23.8273 29.2124 23.8086L31.4712 23.5684V21.6119L29.2124 21.3717C29.0354 21.353 28.8683 21.281 28.7332 21.1653C28.598 21.0496 28.5011 20.8956 28.4554 20.7236C28.2912 20.1048 28.0451 19.5107 27.7235 18.957C27.6337 18.8028 27.5929 18.625 27.6066 18.447C27.6203 18.2691 27.6879 18.0995 27.8003 17.9609L29.2282 16.1938L27.8448 14.8104L26.0776 16.2383C25.939 16.3507 25.7695 16.4182 25.5916 16.432C25.4136 16.4457 25.2357 16.4049 25.0815 16.315C24.528 15.9938 23.9341 15.7476 23.3155 15.5832C23.1437 15.5375 22.9897 15.4407 22.874 15.3056C22.7583 15.1706 22.6863 15.0036 22.6675 14.8268L22.4302 12.5703H20.4726L20.2329 14.8297C20.2141 15.0066 20.142 15.1736 20.0262 15.3087C19.9103 15.4438 19.7563 15.5405 19.5843 15.5861C18.9662 15.7513 18.3728 15.9982 17.82 16.3203C17.6658 16.4102 17.4879 16.4509 17.31 16.4372C17.1321 16.4235 16.9625 16.356 16.8239 16.2436L15.0585 14.8133L13.6757 16.1967L15.1042 17.9639C15.2165 18.1025 15.284 18.2721 15.2976 18.45C15.3112 18.628 15.2703 18.8058 15.1804 18.96C14.8593 19.5137 14.6132 20.1075 14.4485 20.726C14.4028 20.8978 14.306 21.0518 14.171 21.1675C14.0359 21.2832 13.8689 21.3552 13.6921 21.374L11.4327 21.6143V23.5701L13.6921 23.8104C13.8689 23.8292 14.0359 23.9012 14.171 24.0169C14.306 24.1326 14.4028 24.2865 14.4485 24.4584C14.6132 25.0762 14.8591 25.6695 15.1798 26.2227C15.2697 26.3768 15.3106 26.5546 15.297 26.7326C15.2834 26.9105 15.2159 27.0801 15.1036 27.2188L13.6757 28.983L15.0591 30.3664L16.8269 28.9385C16.9655 28.8261 17.135 28.7585 17.3129 28.7448C17.4909 28.7311 17.6688 28.7719 17.8229 28.8617C18.3763 29.1831 18.97 29.4292 19.5884 29.5936C19.7604 29.6392 19.9144 29.7359 20.0303 29.871C20.1461 30.006 20.2182 30.1731 20.237 30.35L20.4726 32.6094Z" fill="#407BFF"/>
<path d="M21.4517 27.9429C20.3929 27.9428 19.358 27.6288 18.4778 27.0405C17.5975 26.4522 16.9115 25.6161 16.5064 24.638C16.1014 23.6598 15.9954 22.5835 16.2021 21.5451C16.4087 20.5068 16.9186 19.553 17.6672 18.8044C18.4159 18.0558 19.3697 17.546 20.4081 17.3395C21.4465 17.133 22.5228 17.2391 23.5009 17.6442C24.4791 18.0494 25.3151 18.7355 25.9032 19.6158C26.4914 20.4961 26.8054 21.5311 26.8054 22.5898C26.8038 24.0092 26.2393 25.37 25.2356 26.3735C24.2319 27.3771 22.871 27.9415 21.4517 27.9429ZM21.4517 18.9945C20.7406 18.9946 20.0455 19.2056 19.4544 19.6007C18.8632 19.9958 18.4025 20.5574 18.1304 21.2144C17.8584 21.8713 17.7873 22.5942 17.9261 23.2916C18.0649 23.989 18.4073 24.6295 18.9102 25.1323C19.413 25.6351 20.0536 25.9774 20.7511 26.1161C21.4485 26.2548 22.1713 26.1835 22.8283 25.9114C23.4852 25.6393 24.0466 25.1784 24.4417 24.5872C24.8367 23.996 25.0476 23.3009 25.0476 22.5898C25.0465 21.6365 24.6673 20.7226 23.9931 20.0485C23.319 19.3745 22.405 18.9954 21.4517 18.9945Z" fill="#407BFF"/>
</svg>
