<svg width="15" height="15" viewBox="0 0 15 15" fill="none" xmlns="http://www.w3.org/2000/svg">
<path d="M3.9375 13.9085L3.70704 13.4646L3.69607 13.4706L3.9375 13.9085ZM7.99375 11.8026L8.22442 11.359L7.99393 11.2391L7.76336 11.3588L7.99375 11.8026ZM12.0437 13.9085L12.3031 13.481L12.289 13.4725L12.2744 13.4649L12.0437 13.9085ZM12.5375 13.9735L12.3903 13.4956L12.3851 13.4973L12.5375 13.9735ZM12.925 13.6485L13.3685 13.8795L13.3699 13.8767L12.925 13.6485ZM13 3.4634H13.5L13.5 3.4581L13 3.4634ZM9.91875 0.5H6.0625V1.5H9.91875V0.5ZM6.0625 0.5C5.16162 0.5 4.27931 0.683852 3.60847 1.16139C2.91202 1.65717 2.5 2.43033 2.5 3.4634H3.5C3.5 2.72854 3.77548 2.27001 4.1884 1.97606C4.62694 1.66388 5.27588 1.5 6.0625 1.5V0.5ZM2.5 3.4634V13.33H3.5V3.4634H2.5ZM2.5 13.33C2.5 13.945 2.98057 14.493 3.63125 14.493V13.493C3.58193 13.493 3.5 13.4431 3.5 13.33H2.5ZM3.63125 14.493C3.8386 14.493 4.02798 14.4296 4.17893 14.3464L3.69607 13.4706C3.66077 13.4901 3.6364 13.493 3.63125 13.493V14.493ZM4.16789 14.3523L8.22414 12.2463L7.76336 11.3588L3.70711 13.4647L4.16789 14.3523ZM7.76308 12.2462L11.8131 14.3521L12.2744 13.4649L8.22442 11.359L7.76308 12.2462ZM11.7844 14.336C12.0478 14.4958 12.3785 14.5494 12.6899 14.4497L12.3851 13.4973C12.3715 13.5016 12.3397 13.5032 12.3031 13.481L11.7844 14.336ZM12.6847 14.4513C12.9847 14.3589 13.2271 14.1508 13.3685 13.8795L12.4815 13.4175C12.4604 13.4582 12.4278 13.4841 12.3903 13.4957L12.6847 14.4513ZM13.3699 13.8767C13.4586 13.7038 13.5 13.5143 13.5 13.33H12.5C12.5 13.3667 12.4914 13.3982 12.4801 13.4203L13.3699 13.8767ZM13.5 13.33V3.4634H12.5V13.33H13.5ZM13.5 3.4581C13.489 2.42702 13.074 1.65583 12.3769 1.16101C11.7047 0.683856 10.8228 0.5 9.91875 0.5V1.5C10.7085 1.5 11.3578 1.66388 11.7981 1.97645C12.2135 2.27134 12.4922 2.73186 12.5 3.46871L13.5 3.4581Z" fill="#407CE2"/>
</svg>
