<svg width="20" height="20" viewBox="0 0 20 20" fill="none" xmlns="http://www.w3.org/2000/svg">
<path d="M20.0002 10.225C20.0002 9.56665 19.9406 8.94165 19.8384 8.33331H10.2173V12.0916H15.726C15.4791 13.325 14.7554 14.3666 13.6826 15.075V17.575H16.9691C18.8933 15.8333 20.0002 13.2666 20.0002 10.225Z" fill="#4285F4"/>
<path d="M10.2174 20C12.976 20 15.2834 19.1 16.9692 17.575L13.6827 15.075C12.7632 15.675 11.5967 16.0417 10.2174 16.0417C7.55244 16.0417 5.29616 14.2833 4.48731 11.9083H1.09863V14.4833C2.77594 17.75 6.22422 20 10.2174 20Z" fill="#34A853"/>
<path d="M4.48702 11.9083C4.27416 11.3083 4.16347 10.6667 4.16347 9.99999C4.16347 9.33333 4.28267 8.69166 4.48702 8.09166V5.51666H1.09834C0.400169 6.86666 0 8.38333 0 9.99999C0 11.6167 0.400169 13.1333 1.09834 14.4833L4.48702 11.9083Z" fill="#FBBC05"/>
<path d="M10.2174 3.95833C11.7244 3.95833 13.0697 4.46667 14.134 5.45834L17.0458 2.60833C15.2834 0.991668 12.976 0 10.2174 0C6.22422 0 2.77594 2.25 1.09863 5.51667L4.48731 8.09167C5.29616 5.71667 7.55244 3.95833 10.2174 3.95833Z" fill="#EA4335"/>
</svg>
